<svg xmlns="http://www.w3.org/2000/svg" width="320" height="320" viewBox="0 0 320 320" role="img" aria-label="收款码占位图">
  <rect width="320" height="320" rx="24" fill="#ffffff"/>
  <rect x="16" y="16" width="288" height="288" rx="20" fill="#faf5ff" stroke="#d9c4ff" stroke-width="6"/>
  <rect x="40" y="40" width="56" height="56" fill="#2a1b3d"/>
  <rect x="52" y="52" width="32" height="32" fill="#faf5ff"/>
  <rect x="224" y="40" width="56" height="56" fill="#2a1b3d"/>
  <rect x="236" y="52" width="32" height="32" fill="#faf5ff"/>
  <rect x="40" y="224" width="56" height="56" fill="#2a1b3d"/>
  <rect x="52" y="236" width="32" height="32" fill="#faf5ff"/>
  <rect x="128" y="40" width="12" height="12" fill="#2a1b3d"/>
  <rect x="152" y="40" width="12" height="12" fill="#2a1b3d"/>
  <rect x="176" y="40" width="12" height="12" fill="#2a1b3d"/>
  <rect x="116" y="64" width="12" height="12" fill="#2a1b3d"/>
  <rect x="140" y="64" width="12" height="12" fill="#2a1b3d"/>
  <rect x="176" y="64" width="12" height="12" fill="#2a1b3d"/>
  <rect x="128" y="88" width="12" height="12" fill="#2a1b3d"/>
  <rect x="152" y="88" width="12" height="12" fill="#2a1b3d"/>
  <rect x="188" y="88" width="12" height="12" fill="#2a1b3d"/>
  <rect x="116" y="124" width="12" height="12" fill="#2a1b3d"/>
  <rect x="140" y="124" width="12" height="12" fill="#2a1b3d"/>
  <rect x="164" y="124" width="12" height="12" fill="#2a1b3d"/>
  <rect x="188" y="124" width="12" height="12" fill="#2a1b3d"/>
  <rect x="212" y="124" width="12" height="12" fill="#2a1b3d"/>
  <rect x="92" y="148" width="12" height="12" fill="#2a1b3d"/>
  <rect x="116" y="148" width="12" height="12" fill="#2a1b3d"/>
  <rect x="152" y="148" width="12" height="12" fill="#2a1b3d"/>
  <rect x="176" y="148" width="12" height="12" fill="#2a1b3d"/>
  <rect x="212" y="148" width="12" height="12" fill="#2a1b3d"/>
  <rect x="236" y="148" width="12" height="12" fill="#2a1b3d"/>
  <rect x="80" y="172" width="12" height="12" fill="#2a1b3d"/>
  <rect x="104" y="172" width="12" height="12" fill="#2a1b3d"/>
  <rect x="140" y="172" width="12" height="12" fill="#2a1b3d"/>
  <rect x="164" y="172" width="12" height="12" fill="#2a1b3d"/>
  <rect x="188" y="172" width="12" height="12" fill="#2a1b3d"/>
  <rect x="224" y="172" width="12" height="12" fill="#2a1b3d"/>
  <rect x="92" y="196" width="12" height="12" fill="#2a1b3d"/>
  <rect x="128" y="196" width="12" height="12" fill="#2a1b3d"/>
  <rect x="152" y="196" width="12" height="12" fill="#2a1b3d"/>
  <rect x="176" y="196" width="12" height="12" fill="#2a1b3d"/>
  <rect x="212" y="196" width="12" height="12" fill="#2a1b3d"/>
  <rect x="236" y="196" width="12" height="12" fill="#2a1b3d"/>
  <rect x="116" y="220" width="12" height="12" fill="#2a1b3d"/>
  <rect x="140" y="220" width="12" height="12" fill="#2a1b3d"/>
  <rect x="188" y="220" width="12" height="12" fill="#2a1b3d"/>
  <rect x="212" y="220" width="12" height="12" fill="#2a1b3d"/>
  <rect x="128" y="244" width="12" height="12" fill="#2a1b3d"/>
  <rect x="152" y="244" width="12" height="12" fill="#2a1b3d"/>
  <rect x="176" y="244" width="12" height="12" fill="#2a1b3d"/>
  <rect x="224" y="244" width="12" height="12" fill="#2a1b3d"/>
  <text x="160" y="294" text-anchor="middle" font-family="Segoe UI, Arial, sans-serif" font-size="18" fill="#7b5ca4">请替换为真实收款码</text>
</svg>
